<?xml version="1.0" encoding="UTF-8"?>
<!-- Uploaded to: SVG Repo, www.svgrepo.com, Generator: SVG Repo Mixer Tools -->
<svg width="800px" height="800px" viewBox="0 -8.5 49 49" version="1.1" xmlns="http://www.w3.org/2000/svg" xmlns:xlink="http://www.w3.org/1999/xlink">
    
    <title>casino-cards</title>
    <desc>Created with Sketch.</desc>
    <g id="icons" stroke="none" stroke-width="1" fill="none" fill-rule="evenodd">
        <g id="ui-gambling-website-lined-icnos-casinoshunter" transform="translate(-2286.000000, -414.000000)" fill="#1C1C1F" fill-rule="nonzero">
            <g id="1" transform="translate(1350.000000, 120.000000)">
                <path d="M971.861,297.527154 L981.865166,300.207676 C983.425031,300.62564 984.369223,302.20214 984.041096,303.783072 L983.999369,303.958691 L978.833238,323.238954 C978.409964,324.818631 976.844612,325.783168 975.282906,325.461406 L975.109456,325.420327 L962.727,322.102154 L966.857709,322.103143 C969.54825,322.103143 971.74277,319.952453 971.856407,317.256063 L971.86103,317.036273 L971.861,314.439154 L975.09175,312.420992 L975.259217,312.312779 C975.747172,311.969539 976.102664,311.462154 976.259035,310.878568 C976.433812,310.226293 976.3457,309.532171 976.013953,308.949093 C975.682206,308.366015 975.133856,307.941499 974.489767,307.768916 C973.965272,307.628378 973.412227,307.664262 972.912363,307.865538 L972.727567,307.948747 L972.631598,307.813387 L972.500209,307.654427 C972.316381,307.449759 972.10054,307.277174 971.861437,307.143445 L971.861,297.527154 Z M948.208,297.537154 L948.207895,307.16439 C947.983385,307.295015 947.780209,307.460288 947.605838,307.654427 L947.474448,307.813387 L947.37848,307.948747 C946.832527,307.67599 946.206337,307.61081 945.61628,307.768916 C944.97219,307.941499 944.423841,308.366015 944.092093,308.949093 C943.760346,309.532171 943.672235,310.226293 943.847011,310.878568 C944.003383,311.462154 944.358875,311.969539 944.84683,312.312779 L945.014296,312.420992 L948.208,314.417154 L948.208968,317.036273 C948.208968,319.760987 950.332684,321.983381 952.995255,322.098462 L953.212289,322.103143 L957.378,322.102154 L944.99659,325.420327 C943.378953,325.853772 941.711759,324.877138 941.272809,323.238954 L936.106678,303.958691 C935.667728,302.320507 936.623243,300.64112 938.240881,300.207676 L948.208,297.537154 Z M967.311132,294 C969.010469,294 970.388055,295.377585 970.388055,297.076923 L970.388055,317.076923 C970.388055,318.776261 969.010469,320.153846 967.311132,320.153846 L953.464978,320.153846 C951.76564,320.153846 950.388055,318.776261 950.388055,317.076923 L950.388055,297.076923 C950.388055,295.377585 951.76564,294 953.464978,294 L967.311132,294 Z M966.541901,315.538462 L965.003439,315.538462 C964.578605,315.538462 964.234209,315.882858 964.234209,316.307692 C964.234209,316.697124 964.523597,317.018965 964.899059,317.069901 L965.003439,317.076923 L966.541901,317.076923 C966.966735,317.076923 967.311132,316.732527 967.311132,316.307692 C967.311132,315.882858 966.966735,315.538462 966.541901,315.538462 Z M974.092452,309.251716 C974.348012,309.320193 974.565447,309.488679 974.697282,309.720393 C974.828974,309.951853 974.863888,310.227041 974.794464,310.486137 C974.746858,310.663803 974.652982,310.823491 974.52189,310.951346 L974.416734,311.041052 L974.319056,311.105751 L971.861,312.640154 L971.861,309.478154 L971.929917,309.553212 C972.117725,309.729798 972.384506,309.798165 972.634578,309.732576 L972.74045,309.69619 L972.825907,309.653014 L973.334563,309.355041 L973.452609,309.295884 C973.654443,309.210947 973.879397,309.194628 974.092452,309.251716 Z M946.653437,309.295884 L946.771483,309.355041 L947.28014,309.653014 L947.365596,309.69619 C947.658366,309.821778 947.995103,309.748151 948.20919,309.520126 L948.208,312.618154 L945.786991,311.105751 L945.689313,311.041052 C945.502895,310.902211 945.37109,310.708219 945.311583,310.486137 C945.242158,310.227041 945.277073,309.951853 945.408764,309.720393 C945.5406,309.488679 945.758035,309.320193 946.013595,309.251716 C946.22665,309.194628 946.451603,309.210947 946.653437,309.295884 Z M962.067629,303.230769 C961.57461,303.230769 961.096446,303.373413 960.688189,303.635919 L960.517662,303.755694 L960.388051,303.861813 C959.924576,303.456245 959.327943,303.230769 958.708085,303.230769 C958.031465,303.230769 957.382519,303.499429 956.90423,303.977724 C956.425942,304.456018 956.157286,305.104969 956.157286,305.781593 C956.157286,306.386965 956.372463,306.970225 956.760581,307.428969 L956.896301,307.577132 L959.828911,310.68219 C959.973895,310.835891 960.176483,310.923077 960.388055,310.923077 C960.564365,310.923077 960.734436,310.862531 960.870231,310.753298 L960.94737,310.68201 L963.885878,307.57045 C964.35304,307.09977 964.618824,306.45441 964.618824,305.781593 C964.618824,305.105149 964.3499,304.456145 963.871484,303.977724 C963.393098,303.499333 962.744508,303.230769 962.067629,303.230769 Z M944.579259,310.682362 L944.619538,310.812094 L944.608583,310.780537 L944.579259,310.682362 Z M975.526787,310.682362 L975.497464,310.780537 L975.486508,310.812094 L975.526787,310.682362 Z M944.8,309.253154 L944.775,309.293154 L944.786371,309.274484 L944.8,309.253154 Z M975.305,309.253154 L975.319676,309.274484 L975.33,309.293154 L975.305,309.253154 Z M962.067629,304.768923 C962.336218,304.768923 962.593943,304.875689 962.783928,305.065676 C962.973625,305.255663 963.080283,305.513163 963.080283,305.781593 C963.080283,305.965659 963.030132,306.144586 962.937379,306.300196 L962.859944,306.412248 L962.776009,306.505429 L960.388045,309.033623 L957.999064,306.504571 L957.920317,306.416621 C957.774066,306.233901 957.695826,306.011966 957.695826,305.781593 C957.695826,305.512825 957.802319,305.255541 957.992182,305.065676 C958.182253,304.875603 958.439618,304.768923 958.708085,304.768923 C958.9319,304.768923 959.148099,304.843055 959.323617,304.977602 L959.423782,305.06547 L959.844079,305.485772 L959.916498,305.549722 C960.187909,305.760756 960.568288,305.764614 960.843955,305.5615 L960.931672,305.48613 L961.351855,305.065548 L961.437199,304.989345 C961.615531,304.847383 961.837717,304.768923 962.067629,304.768923 Z M956.926516,305.781593 L956.932055,305.918 L956.929474,305.884215 L956.926516,305.781593 Z M957.551997,304.425902 L957.448161,304.521649 C957.481679,304.488322 957.516294,304.456359 957.551997,304.425902 Z M941.232414,302.585254 L939.767918,302.977665 C939.363509,303.086026 939.12463,303.505872 939.234367,303.915418 C939.33496,304.290836 939.693569,304.527281 940.064137,304.480616 L940.165313,304.460762 L941.629809,304.068351 C942.034218,303.95999 942.273097,303.540143 942.16336,303.130597 C942.053622,302.721051 941.636824,302.476893 941.232414,302.585254 Z M977.942687,303.130597 C977.842094,303.506014 978.034436,303.890087 978.37869,304.034958 L978.476238,304.068351 L979.940734,304.460762 L980.041909,304.480616 C980.412477,304.527281 980.771086,304.290836 980.871679,303.915418 C980.972272,303.540001 980.77993,303.155929 980.435676,303.011058 L980.338128,302.977665 L978.873632,302.585254 C978.469223,302.476893 978.052425,302.721051 977.942687,303.130597 Z M961.701055,304.038 L961.516386,304.087209 L961.657508,304.047593 L961.701055,304.038 Z M961.801852,304.019649 L961.701055,304.038 L961.718452,304.034528 L961.801852,304.019649 Z M955.77267,297.076923 L954.234209,297.076923 C953.809374,297.076923 953.464978,297.421319 953.464978,297.846154 C953.464978,298.235585 953.754367,298.557427 954.129829,298.608362 L954.234209,298.615385 L955.77267,298.615385 C956.197505,298.615385 956.541901,298.270988 956.541901,297.846154 C956.541901,297.421319 956.197505,297.076923 955.77267,297.076923 Z" id="casino-cards">
</path>
            </g>
        </g>
    </g>
</svg>