<?xml version="1.0" ?>
<!-- Uploaded to: SVG Repo, www.svgrepo.com, Generator: SVG Repo Mixer Tools -->
<svg width="800px" height="800px" viewBox="0 0 64 64" xmlns="http://www.w3.org/2000/svg">
<g id="a"/>
<g id="b"/>
<g id="c"/>
<g id="d"/>
<g id="e"/>
<g id="f"/>
<g id="g"/>
<g id="h"/>
<g id="i"/>
<g id="j"/>
<g id="k"/>
<g id="l"/>
<g id="m"/>
<g id="n">
<rect fill="#f5e680" height="23.53" rx="2.17" ry="2.17" width="54" x="5" y="27.02"/>
<path d="M40.57,27.02l1.76,1.8-.48,3.27c-.12,.84,.75,1.48,1.51,1.1l2.96-1.46,2.96,1.46c.76,.38,1.63-.26,1.51-1.1l-.48-3.27,1.76-1.8h-11.5Zm-16.61,0l-.17,1.18c-.17,1.2,1.07,2.1,2.15,1.56l3.71-1.83,3.71,1.83c1.08,.54,2.33-.36,2.15-1.56l-.17-1.18h-11.37Zm-16.74,0l1.76,1.8-.48,3.27c-.12,.84,.75,1.47,1.51,1.1l2.96-1.46,2.96,1.46c.76,.38,1.63-.26,1.51-1.1l-.48-3.27,1.76-1.8H7.23Z" fill="#f2d865" fill-rule="evenodd"/>
<path d="M33.33,14.26l1.92,3.66,4.08,.7c1.19,.2,1.67,1.66,.82,2.53l-2.89,2.96,.6,4.09c.18,1.2-1.07,2.1-2.15,1.56l-3.71-1.83-3.71,1.83c-1.09,.54-2.33-.36-2.15-1.56l.6-4.09-2.89-2.96c-.85-.87-.37-2.33,.82-2.53l4.08-.7,1.92-3.66c.56-1.07,2.1-1.07,2.66,0Z" fill="#ebb680" fill-rule="evenodd"/>
<path d="M16.26,21.2l1.53,2.92,3.25,.55c.84,.14,1.17,1.17,.58,1.77l-2.31,2.36,.48,3.27c.12,.84-.75,1.47-1.51,1.1l-2.96-1.46-2.96,1.46c-.76,.38-1.63-.26-1.51-1.1l.48-3.27-2.31-2.36c-.59-.61-.26-1.63,.58-1.77l3.25-.55,1.53-2.92c.39-.75,1.47-.75,1.86,0Z" fill="#ebb680" fill-rule="evenodd"/>
<path d="M49.61,21.2l1.53,2.92,3.25,.55c.84,.14,1.17,1.17,.58,1.77l-2.31,2.36,.48,3.27c.12,.84-.75,1.47-1.51,1.1l-2.96-1.46-2.96,1.46c-.76,.38-1.63-.26-1.51-1.1l.48-3.27-2.31-2.36c-.59-.61-.26-1.63,.58-1.77l3.25-.55,1.53-2.92c.39-.75,1.47-.75,1.86,0Z" fill="#ebb680" fill-rule="evenodd"/>
<path d="M53.8,27.02c1.2,0,2.17,.97,2.17,2.17v19.19c0,1.2-.97,2.17-2.17,2.17h3.03c1.2,0,2.17-.97,2.17-2.17V29.18c0-1.2-.97-2.17-2.17-2.17h-3.03Z" fill="#f2d865" fill-rule="evenodd"/>
<path d="M48.67,20.64c-.39,0-.75,.22-.93,.56l-.35,.66,1.18,2.26,3.26,.56c.84,.14,1.17,1.17,.58,1.77l-2.31,2.36,.48,3.27c.02,.18,0,.37-.07,.54l1.12,.56c.76,.38,1.63-.26,1.51-1.1l-.48-3.27,2.31-2.36c.59-.61,.26-1.63-.58-1.77l-3.26-.56-1.53-2.92c-.18-.35-.54-.56-.93-.56Zm-33.35,0c-.39,0-.75,.22-.93,.56l-.35,.66,1.18,2.26,3.26,.56c.84,.14,1.17,1.17,.58,1.77l-2.31,2.36,.48,3.27c.02,.18,0,.37-.07,.54l1.12,.56c.76,.38,1.63-.26,1.51-1.1l-.48-3.27,2.31-2.36c.59-.61,.26-1.63-.58-1.77l-3.26-.56-1.53-2.92c-.18-.35-.54-.56-.93-.56Zm16.44-7.17c-.44,.08-.82,.34-1.05,.73,.02,.02,.03,.04,.05,.06l1.92,3.66,4.08,.69c1.19,.2,1.67,1.66,.82,2.53l-2.89,2.96,.6,4.09c.06,.43-.07,.86-.35,1.19l.76,.38c1.08,.54,2.33-.36,2.15-1.56l-.6-4.09,2.89-2.96c.85-.87,.37-2.33-.82-2.53l-4.08-.69-1.92-3.66c-.3-.57-.93-.89-1.56-.79Z" fill="#e6a361" fill-rule="evenodd"/>
<path d="M56.83,26.02h-.62c.01-.1,.06-.19,.06-.29,0-1-.72-1.86-1.71-2.02l-2.77-.47-1.3-2.49h0c-.36-.68-1.05-1.1-1.82-1.1s-1.46,.42-1.82,1.1l-1.3,2.49-2.77,.47c-.99,.17-1.71,1.02-1.71,2.02,0,.1,.04,.2,.06,.29h-2.59l-.23-1.57,2.54-2.6c.46-.47,.71-1.09,.71-1.75,0-1.22-.88-2.26-2.08-2.46l-3.59-.61-1.69-3.22c-.43-.83-1.28-1.34-2.22-1.34s-1.78,.51-2.22,1.34l-1.69,3.22-3.59,.61c-1.21,.21-2.08,1.24-2.08,2.47,0,.66,.25,1.28,.71,1.75l2.54,2.6-.23,1.57h-2.59c.01-.1,.06-.19,.06-.29,0-1-.72-1.86-1.71-2.02l-2.77-.47-1.3-2.49c-.36-.68-1.05-1.1-1.82-1.1s-1.46,.42-1.82,1.1l-1.3,2.49-2.77,.47c-.99,.17-1.71,1.02-1.71,2.02,0,.1,.04,.2,.06,.29h-.62c-1.75,0-3.17,1.42-3.17,3.17v19.19c0,1.75,1.42,3.17,3.17,3.17H56.83c1.75,0,3.17-1.42,3.17-3.17V29.18c0-1.75-1.42-3.17-3.17-3.17Zm-10.46-.9c.31-.05,.57-.24,.72-.52l1.58-2.95s.04,.01,.05,.03l1.53,2.92c.15,.28,.41,.47,.72,.52l3.28,.64-.54,.55h0l-1.77,1.81c-.22,.22-.32,.53-.27,.84l.4,3.32-2.96-1.46c-.14-.07-.29-.1-.44-.1s-.3,.03-.44,.1l-3.04,1.41,.48-3.27c.05-.31-.06-.62-.27-.84l-2.28-2.45,3.25-.55Zm-21.81-4.67c-.09-.09-.14-.22-.14-.35,0-.24,.18-.45,.42-.49l4.08-.7c.31-.05,.57-.25,.72-.52l1.92-3.66c.17-.33,.71-.33,.89,0l1.92,3.66c.15,.28,.41,.47,.72,.52l4.08,.7c.24,.04,.42,.25,.42,.49,0,.13-.05,.26-.14,.35l-2.89,2.96c-.22,.22-.32,.54-.27,.84l.6,4.17c0,.35-.41,.61-.73,.45l-3.71-1.83c-.14-.07-.29-.1-.44-.1s-.3,.03-.44,.1l-3.71,1.84c-.3,.15-.72-.08-.72-.52l.6-4.09c.05-.31-.06-.62-.27-.84l-2.89-2.96Zm-11.54,4.67c.31-.05,.57-.25,.72-.52l1.58-2.95s.04,.01,.05,.03h0l1.53,2.93c.15,.28,.41,.47,.72,.52l3.28,.64-2.31,2.36c-.22,.22-.32,.54-.27,.84l.4,3.32-2.96-1.46c-.14-.07-.29-.1-.44-.1s-.3,.03-.44,.1l-3.03,1.41,.48-3.27c.05-.31-.06-.62-.27-.84l-2.28-2.45,3.25-.55Zm44.97,23.26c0,.64-.52,1.17-1.17,1.17H7.17c-.64,0-1.17-.52-1.17-1.17V29.18c0-.64,.52-1.17,1.17-1.17h1.99l1.12,1.15-.41,2.77c-.02,.1-.02,.21-.02,.31,0,1.13,.92,2.05,2.05,2.05,.32,0,.63-.07,.91-.21l2.52-1.25,2.51,1.24c.28,.14,.6,.21,.91,.21,1.13,0,2.05-.92,2.05-2.05,0-.1,0-.19-.02-.3l-.41-2.78,1.12-1.15h3.66v.04c-.02,.12-.03,.24-.03,.36,0,1.38,1.12,2.5,2.5,2.5,.39,0,.77-.09,1.11-.26l3.26-1.61,3.26,1.61c.34,.17,.73,.26,1.11,.26,1.38,0,2.5-1.12,2.5-2.5,0-.12,0-.24-.03-.36v-.03h3.66l1.12,1.15-.41,2.79c-.01,.09-.02,.19-.02,.29,0,1.13,.92,2.05,2.05,2.05,.32,0,.63-.07,.91-.21l2.52-1.25,2.51,1.24c.28,.14,.6,.21,.91,.21,1.13,0,2.05-.92,2.05-2.05,0-.1,0-.21-.02-.3l-.41-2.78,1.12-1.15h1.99c.64,0,1.17,.52,1.17,1.17v19.19Z"/>
<path d="M18.38,36.46c-.55,0-1,.45-1,1v2.96l-1.24-1.37c-.38-.42-1.11-.42-1.48,0l-1.24,1.37v-2.96c0-.55-.45-1-1-1s-1,.45-1,1v5.56c0,.41,.25,.79,.64,.93,.39,.15,.82,.04,1.1-.26l2.24-2.48,2.24,2.48c.28,.31,.72,.41,1.1,.26,.39-.15,.64-.52,.64-.93v-5.56c0-.55-.45-1-1-1Z"/>
<path d="M21.73,36.46c-.55,0-1,.45-1,1v5.56c0,.55,.45,1,1,1s1-.45,1-1v-5.56c0-.55-.45-1-1-1Z"/>
<path d="M26.09,43.01v-2.77l2.81,3.41c.26,.32,.7,.45,1.11,.31,.4-.14,.66-.52,.66-.94v-5.56c0-.55-.45-1-1-1s-1,.45-1,1v2.77l-2.81-3.41c-.27-.33-.71-.45-1.11-.31-.4,.14-.66,.52-.66,.94v5.56c0,.55,.45,1,1,1s1-.45,1-1Z"/>
<path d="M33.03,44.01c.55,0,1-.45,1-1v-2.77l2.81,3.41c.26,.32,.7,.45,1.11,.31,.4-.14,.66-.52,.66-.94v-5.56c0-.55-.45-1-1-1s-1,.45-1,1v2.77l-2.81-3.41c-.27-.33-.71-.45-1.11-.31-.4,.14-.66,.52-.66,.94v5.56c0,.55,.45,1,1,1Z"/>
<path d="M43.82,38.46c.55,0,1-.45,1-1s-.45-1-1-1h-2.85c-.55,0-1,.45-1,1v5.56c0,.55,.45,1,1,1h2.86c.55,0,1-.44,1-.99,0-.55-.45-1-1-1h-1.86v-.78h1.85c.55,0,1-.45,1-1s-.45-1-1-1h-1.86v-.78h1.85Z"/>
<path d="M52.58,39.31c0-1.57-1.28-2.86-2.85-2.86h-2.56c-.55,0-1,.45-1,1v5.56c0,.55,.45,1,1,1s1-.45,1-1v-.85h1.15l1.56,1.52c.19,.19,.45,.28,.7,.28s.52-.1,.72-.3c.39-.4,.38-1.03-.02-1.41l-.78-.76c.65-.52,1.08-1.29,1.08-2.18Zm-4.41-.86h1.56c.48,0,.85,.38,.85,.86s-.38,.85-.85,.85h-1.56v-1.71Z"/>
<path d="M38.35,45.81h-12.7c-.55,0-1,.45-1,1s.45,1,1,1h12.7c.55,0,1-.45,1-1s-.45-1-1-1Z"/>
<path d="M16.93,45.81c-.27,0-.52,.11-.71,.29s-.29,.44-.29,.71,.1,.52,.29,.71c.19,.19,.44,.29,.71,.29s.52-.11,.71-.29,.29-.44,.29-.71-.11-.52-.29-.71c-.19-.19-.44-.29-.71-.29Z"/>
<path d="M21.08,45.81c-.26,0-.52,.11-.71,.29s-.29,.44-.29,.71,.11,.52,.29,.71c.19,.19,.44,.29,.71,.29s.52-.11,.71-.29c.19-.19,.29-.44,.29-.71s-.1-.52-.29-.71-.44-.29-.71-.29Z"/>
<path d="M42.92,45.81c-.27,0-.52,.11-.71,.29s-.29,.44-.29,.71,.1,.52,.29,.71c.19,.19,.44,.29,.71,.29s.52-.11,.71-.29c.19-.19,.29-.44,.29-.71s-.1-.52-.29-.71c-.19-.19-.44-.29-.71-.29Z"/>
<path d="M47.07,45.81c-.27,0-.52,.11-.71,.29-.19,.19-.29,.44-.29,.71s.11,.52,.29,.71,.44,.29,.71,.29,.52-.11,.71-.29c.19-.19,.29-.44,.29-.71s-.11-.52-.29-.71-.44-.29-.71-.29Z"/>
</g>
<g id="o"/>
<g id="p"/>
<g id="q"/>
<g id="r"/>
<g id="s"/>
<g id="t"/>
<g id="u"/>
<g id="v"/>
<g id="w"/>
<g id="x"/>
<g id="y"/>
<g id="a`"/>
<g id="aa"/>
<g id="ab"/>
<g id="ac"/>
<g id="ad"/>
<g id="ae"/>
<g id="af"/>
<g id="ag"/>
<g id="ah"/>
<g id="ai"/>
<g id="aj"/>
<g id="ak"/>
<g id="al"/>
<g id="am"/>
<g id="an"/>
<g id="ao"/>
<g id="ap"/>
<g id="aq"/>
<g id="ar"/>
<g id="as"/>
<g id="at"/>
<g id="au"/>
<g id="av"/>
<g id="aw"/>
<g id="ax"/>
</svg>