<?xml version="1.0" ?>
<!-- Uploaded to: SVG Repo, www.svgrepo.com, Generator: SVG Repo Mixer Tools -->
<svg width="800px" height="800px" viewBox="0 0 64 64" xmlns="http://www.w3.org/2000/svg">
<g id="a"/>
<g id="b"/>
<g id="c"/>
<g id="d"/>
<g id="e"/>
<g id="f"/>
<g id="g"/>
<g id="h"/>
<g id="i"/>
<g id="j"/>
<g id="k"/>
<g id="l"/>
<g id="m"/>
<g id="n"/>
<g id="o"/>
<g id="p"/>
<g id="q"/>
<g id="r"/>
<g id="s"/>
<g id="t"/>
<g id="u"/>
<g id="v"/>
<g id="w"/>
<g id="x"/>
<g id="y"/>
<g id="a`"/>
<g id="aa"/>
<g id="ab"/>
<g id="ac">
<polygon fill="#8996a8" fill-rule="evenodd" points="55.96 40.95 29.37 37.06 8.04 40.95 8.04 47.7 29.44 51.05 55.96 47.7 55.96 40.95"/>
<path d="M10.75,10.66c-1.5,0-2.71,1.21-2.71,2.71v27.58H55.96V13.37c0-1.5-1.21-2.71-2.71-2.71H10.75Z" fill="#9fa9b6" fill-rule="evenodd"/>
<path d="M11.78,14.39v26.55c13.48,0,26.96,0,40.45,0V14.39H11.78Z" fill="#f0f3f5" fill-rule="evenodd"/>
<polygon fill="#7a8594" fill-rule="evenodd" points="53.23 40.55 53.23 47.7 55.96 47.7 55.96 40.95 53.23 40.55"/>
<path d="M50.52,10.66c1.5,0,2.71,1.21,2.71,2.71v27.58h2.73V13.37c0-1.5-1.21-2.71-2.71-2.71h-2.73Z" fill="#8996a8" fill-rule="evenodd"/>
<path d="M20.38,47.7H6.85c-1.02,0-1.85,.82-1.85,1.84v3.23c0,2.58,2.11,4.66,4.73,4.66H54.34c2.58,0,4.66-2.08,4.66-4.66v-3.23c0-1.02-.82-1.84-1.85-1.84h-13.53l-11.62,2-11.62-2Z" fill="#f0f3f5" fill-rule="evenodd"/>
<path d="M20.38,47.7v2c0,1.02,.82,1.85,1.85,1.85h19.55c1.02,0,1.85-.82,1.85-1.85v-2H20.38Z" fill="#e4ecf0" fill-rule="evenodd"/>
<path d="M53.63,47.7c1.02,0,1.85,.82,1.85,1.84v3.23c0,2.58-2.08,4.66-4.66,4.66h3.53c2.58,0,4.66-2.08,4.66-4.66v-3.23c0-1.02-.82-1.84-1.85-1.84h-3.53Z" fill="#e4ecf0" fill-rule="evenodd"/>
<path d="M40.65,47.7v2c0,1.02-.82,1.85-1.85,1.85h2.97c1.02,0,1.85-.82,1.85-1.85v-2h-2.97Z" fill="#d9e3e9" fill-rule="evenodd"/>
<path d="M27.59,31.83h0c.23,.85,.89,1.56,1.8,1.8l11.45,3.07c1.36,.36,2.74-.44,3.11-1.79l4.93-18.39c.36-1.36-.44-2.74-1.79-3.11l-11.45-3.07c-1.36-.36-2.74,.44-3.1,1.79l-.03,.1-4.9,19.6Z" fill="#d9e3e9" fill-rule="evenodd"/>
<path d="M35.21,22.38c.13-.24,.32-.46,.58-.61l2.15-1.24c.71-.41,1.62-.17,2.03,.54l1.24,2.15c.41,.71,.17,1.62-.54,2.03l-2.15,1.24c-.71,.41-1.62,.17-2.03-.54l-.59-1.02-.69-2.55Z" fill="#e8a3c1" fill-rule="evenodd"/>
<path d="M34.87,10.25c-1.08,.04-2.05,.78-2.35,1.88l-.03,.1-4.91,19.6h0c.13,.5,.42,.95,.81,1.28l9.44-2.53c1.36-.36,2.16-1.75,1.79-3.1l-4.61-17.22c-.05,0-.1,0-.15,0Z" fill="#ccd6de" fill-rule="evenodd"/>
<path d="M37.79,20.62l-2,1.16c-.26,.15-.45,.36-.58,.61l.69,2.55,.59,1.02c.41,.71,1.32,.96,2.03,.54l.74-.43-1.46-5.45Z" fill="#e38fb6" fill-rule="evenodd"/>
<path d="M16.93,9.72l11.45-3.07c1.36-.36,2.74,.44,3.1,1.79l4.93,18.39c.36,1.36-.44,2.74-1.79,3.1l-11.45,3.07c-1.36,.36-2.74-.44-3.1-1.79L15.13,12.83c-.36-1.36,.44-2.74,1.79-3.1Z" fill="#e4ecf0" fill-rule="evenodd"/>
<rect fill="#e8a3c1" height="5.45" rx="1.49" ry="1.49" transform="translate(-4.29 32.24) rotate(-60.01)" width="5.45" x="23.04" y="17.11"/>
<path d="M57.15,46.7h-.2V13.37c0-2.04-1.66-3.71-3.71-3.71h-16.28l-1.09-.29c-.91-.24-1.87-.12-2.68,.35-.11,.06-.18,.17-.28,.24l-.48-1.78c-.24-.91-.83-1.68-1.65-2.15-.82-.47-1.77-.6-2.68-.35l-11.45,3.07c-.59,.16-1.08,.5-1.5,.91h-4.41c-2.04,0-3.71,1.66-3.71,3.71V46.7h-.2c-1.57,0-2.85,1.28-2.85,2.84v3.23c0,3.12,2.57,5.66,5.73,5.66H54.34c3.12,0,5.66-2.54,5.66-5.66v-3.23c0-1.57-1.28-2.84-2.85-2.84Zm-3.91-35.04c.94,0,1.71,.77,1.71,1.71v26.58h-1.73V14.39c0-.55-.45-1-1-1h-3.35c-.42-.43-.92-.79-1.54-.95l-2.9-.78h8.81ZM19.1,31.48c.42,1.58,1.86,2.62,3.42,2.62,.3,0,.61-.04,.91-.12l3.6-.97c.47,.76,1.21,1.34,2.1,1.58l11.45,3.07c.31,.08,.61,.12,.91,.12,1.56,0,3-1.04,3.42-2.62l4.93-18.39c.12-.46,.15-.93,.09-1.38h1.31v24.55H12.77V15.39h2.01l4.31,16.08Zm15.1-20.02c.35-.21,.77-.26,1.17-.15l11.45,3.07c.82,.22,1.31,1.06,1.09,1.88l-4.93,18.39c-.22,.82-1.07,1.3-1.88,1.09l-11.45-3.07c-.16-.04-.28-.15-.42-.24l5.65-1.51c.91-.24,1.68-.83,2.15-1.65,.3-.51,.4-1.08,.42-1.65,.12,.02,.22,.09,.34,.09,.42,0,.85-.11,1.24-.33l2.15-1.24c.58-.33,.99-.87,1.16-1.51,.17-.64,.08-1.31-.25-1.89l-1.24-2.15c-.33-.58-.87-.99-1.51-1.16-.64-.17-1.31-.08-1.89,.25l-1.66,.96-2.24-8.35c.12-.34,.34-.64,.66-.82Zm3.15,14l-.52-.91-.51-1.92,2.13-1.23c.11-.07,.24-.08,.37-.05,.12,.03,.23,.11,.29,.23l1.24,2.15c.07,.11,.08,.24,.05,.37-.03,.12-.11,.23-.23,.29l-2.15,1.24c-.24,.14-.53,.06-.66-.18ZM17.18,10.69l11.45-3.07c.4-.11,.81-.05,1.17,.15,.35,.2,.61,.54,.71,.93l3.74,13.97h0l1.18,4.42c.11,.4,.05,.81-.15,1.17-.2,.35-.54,.61-.93,.71l-11.45,3.07c-.82,.22-1.66-.27-1.88-1.09l-4.93-18.39c-.11-.4-.05-.81,.15-1.17,.2-.35,.54-.61,.93-.71Zm-6.43,.98h3.34c-.07,.47-.05,.95,.08,1.42l.08,.31h-2.47c-.55,0-1,.45-1,1v25.55h-1.73V13.37c0-.94,.77-1.71,1.71-1.71Zm-1.71,30.28H54.96v4.75H9.04v-4.75Zm12.33,6.75h21.24v1c0,.47-.38,.84-.85,.84H22.22c-.47,0-.85-.38-.85-.84v-1Zm36.62,4.07c0,2.02-1.64,3.66-3.66,3.66H9.73c-2.06,0-3.73-1.64-3.73-3.66v-3.23c0-.47,.38-.84,.85-.84h12.53v1c0,1.57,1.28,2.84,2.85,2.84h19.55c1.57,0,2.85-1.28,2.85-2.84v-1h12.53c.47,0,.85,.38,.85,.84v3.23Z"/>
<path d="M27.52,45.32h8.95c.55,0,1-.45,1-1s-.45-1-1-1h-8.95c-.55,0-1,.45-1,1s.45,1,1,1Z"/>
<path d="M22.83,22.44l2.15,1.24c.38,.22,.81,.34,1.24,.34,.21,0,.43-.03,.64-.09,.64-.17,1.18-.58,1.51-1.16l1.24-2.15c.69-1.19,.28-2.71-.91-3.4l-2.15-1.24c-1.18-.68-2.71-.28-3.4,.91l-1.24,2.15c-.33,.58-.42,1.25-.25,1.89,.17,.64,.58,1.18,1.16,1.51Zm.82-2.4l1.24-2.15c.07-.11,.17-.19,.3-.23,.04-.01,.08-.02,.12-.02,.08,0,.17,.02,.24,.07h0l2.15,1.24c.24,.14,.31,.43,.18,.67l-1.24,2.15c-.07,.11-.17,.19-.29,.23-.12,.04-.25,.02-.37-.05l-2.15-1.24c-.11-.07-.2-.17-.23-.3-.03-.12-.02-.26,.05-.37Z"/>
<path d="M18.09,13.29c.24,0,.47-.13,.59-.34,.19-.32,.07-.74-.25-.93-.1-.06-.22-.09-.34-.09-.24,0-.47,.13-.59,.34-.19,.32-.07,.74,.25,.93,.1,.06,.22,.09,.34,.09Z"/>
<path d="M19.98,12.79c.24,0,.47-.13,.59-.34,.06-.1,.09-.22,.09-.34,0-.24-.13-.47-.34-.59-.1-.06-.22-.09-.34-.09-.24,0-.47,.13-.59,.34-.19,.32-.07,.74,.25,.93,.1,.06,.22,.09,.34,.09Z"/>
<path d="M31.56,28.24c.24,0,.47-.13,.59-.34,.19-.32,.07-.74-.25-.93-.1-.06-.22-.09-.34-.09-.24,0-.47,.13-.59,.34-.06,.1-.09,.22-.09,.34,0,.24,.13,.47,.34,.59,.1,.06,.22,.09,.34,.09Z"/>
<path d="M33.45,27.73c.24,0,.47-.13,.59-.34,.19-.32,.07-.74-.25-.93-.32-.19-.74-.07-.93,.25-.19,.32-.07,.74,.25,.93,.1,.06,.22,.09,.34,.09Z"/>
<path d="M35.86,13.42c0-.12-.03-.24-.09-.34-.12-.21-.35-.34-.59-.34-.12,0-.24,.03-.34,.09-.21,.12-.34,.35-.34,.59,0,.12,.03,.24,.09,.34,.12,.21,.35,.34,.59,.34,.12,0,.24-.03,.34-.09,.21-.12,.34-.35,.34-.59Z"/>
<path d="M37.42,14.52c.21-.12,.34-.35,.34-.59,0-.12-.03-.24-.09-.34-.12-.21-.35-.34-.59-.34-.12,0-.24,.03-.34,.09-.21,.12-.34,.35-.34,.59,0,.12,.03,.24,.09,.34,.19,.32,.61,.44,.93,.25Z"/>
<path d="M39.04,32.52c-.21,.12-.34,.35-.34,.59,0,.12,.03,.24,.09,.34,.19,.32,.61,.44,.93,.25,.21-.12,.34-.35,.34-.59,0-.12-.03-.24-.09-.34-.19-.32-.61-.44-.93-.25Z"/>
<path d="M41.27,32.93c-.12,0-.24,.03-.34,.09-.21,.12-.34,.35-.34,.59,0,.12,.03,.24,.09,.34,.12,.21,.35,.34,.59,.34,.12,0,.24-.03,.34-.09,.32-.19,.44-.61,.25-.93-.12-.21-.35-.34-.59-.34Z"/>
</g>
<g id="ad"/>
<g id="ae"/>
<g id="af"/>
<g id="ag"/>
<g id="ah"/>
<g id="ai"/>
<g id="aj"/>
<g id="ak"/>
<g id="al"/>
<g id="am"/>
<g id="an"/>
<g id="ao"/>
<g id="ap"/>
<g id="aq"/>
<g id="ar"/>
<g id="as"/>
<g id="at"/>
<g id="au"/>
<g id="av"/>
<g id="aw"/>
<g id="ax"/>
</svg>